<svg width="20" height="20" viewBox="0 0 20 20" fill="none" xmlns="http://www.w3.org/2000/svg">
<path d="M8.36769 1.89999C8.37453 1.89999 8.37993 1.90539 8.37993 1.91223V8.36787C8.37993 8.37453 8.37453 8.37993 8.36769 8.37993H1.91223C1.90539 8.37993 1.89999 8.37453 1.89999 8.36769V1.91223C1.89999 1.90539 1.90539 1.89999 1.91223 1.89999H8.36769ZM8.36769 1H1.91223C1.40842 1 1 1.40842 1 1.91223V8.36787C1 8.8715 1.40842 9.27992 1.91223 9.27992H8.36787C8.8715 9.27992 9.27992 8.8715 9.27992 8.36769V1.91223C9.27992 1.40842 8.8715 1 8.36769 1Z" fill="#EC1B23" stroke="#EC1B23" stroke-width="0.4"/>
<path d="M18.0875 1.89999C18.0944 1.89999 18.0998 1.90539 18.0998 1.91223V8.36787C18.0998 8.37453 18.0944 8.37993 18.0875 8.37993H11.6321C11.6252 8.37993 11.6198 8.37453 11.6198 8.36769V1.91223C11.6198 1.90539 11.6252 1.89999 11.6321 1.89999H18.0875ZM18.0875 1H11.6321C11.1283 1 10.7198 1.40842 10.7198 1.91223V8.36787C10.7198 8.8715 11.1283 9.27992 11.6321 9.27992H18.0877C18.5915 9.27992 18.9999 8.8715 18.9999 8.36769V1.91223C18.9998 1.40842 18.5914 1 18.0875 1Z" fill="#EC1B23" stroke="#EC1B23" stroke-width="0.4"/>
<path d="M8.36769 11.6199C8.37453 11.6199 8.37993 11.6253 8.37993 11.6321V18.0878C8.37993 18.0944 8.37453 18.0998 8.36769 18.0998H1.91223C1.90539 18.0998 1.89999 18.0944 1.89999 18.0876V11.6321C1.89999 11.6253 1.90539 11.6199 1.91223 11.6199H8.36769ZM8.36769 10.7199H1.91223C1.40842 10.7199 1 11.1283 1 11.6321V18.0878C1 18.5914 1.40842 18.9998 1.91223 18.9998H8.36787C8.8715 18.9998 9.27992 18.5914 9.27992 18.0876V11.6321C9.27992 11.1283 8.8715 10.7199 8.36769 10.7199Z" fill="#EC1B23" stroke="#EC1B23" stroke-width="0.4"/>
<path d="M18.0875 11.6199C18.0944 11.6199 18.0998 11.6253 18.0998 11.6321V18.0878C18.0998 18.0944 18.0944 18.0998 18.0875 18.0998H11.6321C11.6252 18.0998 11.6198 18.0944 11.6198 18.0876V11.6321C11.6198 11.6253 11.6252 11.6199 11.6321 11.6199H18.0875ZM18.0875 10.7199H11.6321C11.1283 10.7199 10.7198 11.1283 10.7198 11.6321V18.0878C10.7198 18.5916 11.1283 19 11.6321 19H18.0877C18.5915 19 18.9999 18.5916 18.9999 18.0878V11.6321C18.9998 11.1283 18.5914 10.7199 18.0875 10.7199Z" fill="#EC1B23" stroke="#EC1B23" stroke-width="0.4"/>
</svg>
