<svg width="18" height="15" viewBox="0 0 18 15" fill="none" xmlns="http://www.w3.org/2000/svg">
<path d="M15.75 3H11.1C10.9125 3 10.725 2.925 10.575 2.8125L8.25 0.6C7.8375 0.1875 7.275 0 6.7125 0H2.25C1.0125 0 0 1.0125 0 2.25V12.75C0 13.9875 1.0125 15 2.25 15H15.75C16.9875 15 18 13.9875 18 12.75V5.25C18 4.0125 16.9875 3 15.75 3ZM16.5 12.75C16.5 13.1625 16.1625 13.5 15.75 13.5H2.25C1.8375 13.5 1.5 13.1625 1.5 12.75V2.25C1.5 1.8375 1.8375 1.5 2.25 1.5H6.7125C6.9 1.5 7.0875 1.575 7.2375 1.6875L9.5625 3.8625C9.975 4.275 10.5375 4.4625 11.1 4.4625H15.75C16.1625 4.4625 16.5 4.8 16.5 5.2125V12.75Z" fill="#4A5C7B"/>
</svg>
