<svg width="18" height="18" viewBox="0 0 18 18" fill="none" xmlns="http://www.w3.org/2000/svg">
<path d="M5.25 0C5.05109 0 4.86032 0.0790178 4.71967 0.21967C4.57902 0.360322 4.5 0.551088 4.5 0.75V4.5H0.75C0.551088 4.5 0.360322 4.57902 0.21967 4.71967C0.0790178 4.86032 0 5.05109 0 5.25C0 5.44891 0.0790178 5.63968 0.21967 5.78033C0.360322 5.92098 0.551088 6 0.75 6H5.25C5.44891 6 5.63968 5.92098 5.78033 5.78033C5.92098 5.63968 6 5.44891 6 5.25V0.75C6 0.551088 5.92098 0.360322 5.78033 0.21967C5.63968 0.0790178 5.44891 0 5.25 0Z" fill="#4A5C7B"/>
<path d="M12.75 0C12.5511 0 12.3603 0.0790178 12.2197 0.21967C12.079 0.360322 12 0.551088 12 0.75V5.25C12 5.44891 12.079 5.63968 12.2197 5.78033C12.3603 5.92098 12.5511 6 12.75 6H17.25C17.4489 6 17.6397 5.92098 17.7803 5.78033C17.921 5.63968 18 5.44891 18 5.25C18 5.05109 17.921 4.86032 17.7803 4.71967C17.6397 4.57902 17.4489 4.5 17.25 4.5H13.5V0.75C13.5 0.551088 13.421 0.360322 13.2803 0.21967C13.1397 0.0790178 12.9489 0 12.75 0Z" fill="#4A5C7B"/>
<path d="M12 17.25C12 17.4489 12.079 17.6397 12.2197 17.7803C12.3603 17.921 12.5511 18 12.75 18C12.9489 18 13.1397 17.921 13.2803 17.7803C13.421 17.6397 13.5 17.4489 13.5 17.25V13.5H17.25C17.4489 13.5 17.6397 13.421 17.7803 13.2803C17.921 13.1397 18 12.9489 18 12.75C18 12.5511 17.921 12.3603 17.7803 12.2197C17.6397 12.079 17.4489 12 17.25 12H12.75C12.5511 12 12.3603 12.079 12.2197 12.2197C12.079 12.3603 12 12.5511 12 12.75V17.25Z" fill="#4A5C7B"/>
<path d="M0.75 13.5H4.5V17.25C4.5 17.4489 4.57902 17.6397 4.71967 17.7803C4.86032 17.921 5.05109 18 5.25 18C5.44891 18 5.63968 17.921 5.78033 17.7803C5.92098 17.6397 6 17.4489 6 17.25V12.75C6 12.5511 5.92098 12.3603 5.78033 12.2197C5.63968 12.079 5.44891 12 5.25 12H0.75C0.551088 12 0.360322 12.079 0.21967 12.2197C0.0790178 12.3603 0 12.5511 0 12.75C0 12.9489 0.0790178 13.1397 0.21967 13.2803C0.360322 13.421 0.551088 13.5 0.75 13.5Z" fill="#4A5C7B"/>
</svg>
