<svg width="18" height="18" viewBox="0 0 18 18" fill="none" xmlns="http://www.w3.org/2000/svg">
<path d="M0.642857 18H7.07143C7.24192 18 7.40544 17.9323 7.526 17.8117C7.64656 17.6911 7.71429 17.5276 7.71429 17.3571C7.71429 17.1866 7.64656 17.0231 7.526 16.9026C7.40544 16.782 7.24192 16.7143 7.07143 16.7143H2.19536L8.1675 10.7389C8.27282 10.6159 8.32785 10.4578 8.3216 10.296C8.31535 10.1342 8.24828 9.9807 8.13379 9.86621C8.0193 9.75172 7.86583 9.68465 7.70403 9.6784C7.54224 9.67215 7.38405 9.72718 7.26107 9.8325L1.28571 15.8046V10.9286C1.28571 10.7581 1.21798 10.5946 1.09743 10.474C0.976867 10.3534 0.813353 10.2857 0.642857 10.2857C0.472361 10.2857 0.308848 10.3534 0.188288 10.474C0.0677294 10.5946 0 10.7581 0 10.9286V17.3571C0 17.5276 0.0677294 17.6911 0.188288 17.8117C0.308848 17.9323 0.472361 18 0.642857 18Z" fill="#4A5C7B"/>
<path d="M17.3571 0H10.9286C10.7581 0 10.5946 0.0677294 10.474 0.188288C10.3534 0.308848 10.2857 0.472361 10.2857 0.642857C10.2857 0.813353 10.3534 0.976867 10.474 1.09743C10.5946 1.21798 10.7581 1.28571 10.9286 1.28571H15.8046L9.83249 7.26107C9.7652 7.3187 9.71054 7.38962 9.67196 7.46938C9.63337 7.54913 9.61169 7.636 9.60827 7.72454C9.60485 7.81307 9.61977 7.90136 9.65208 7.98385C9.6844 8.06635 9.73343 8.14127 9.79608 8.20392C9.85873 8.26657 9.93365 8.31559 10.0161 8.34791C10.0986 8.38023 10.1869 8.39515 10.2755 8.39173C10.364 8.38831 10.4509 8.36662 10.5306 8.32804C10.6104 8.28945 10.6813 8.2348 10.7389 8.1675L16.7143 2.19536V7.07143C16.7143 7.24192 16.782 7.40544 16.9026 7.526C17.0231 7.64656 17.1866 7.71429 17.3571 7.71429C17.5276 7.71429 17.6911 7.64656 17.8117 7.526C17.9323 7.40544 18 7.24192 18 7.07143V0.642857C18 0.472361 17.9323 0.308848 17.8117 0.188288C17.6911 0.0677294 17.5276 0 17.3571 0Z" fill="#4A5C7B"/>
</svg>
