<svg width="20" height="22" viewBox="0 0 20 22" fill="none" xmlns="http://www.w3.org/2000/svg">
<path fill-rule="evenodd" clip-rule="evenodd" d="M9.81546 1.04852C9.92999 0.983828 10.07 0.983828 10.1845 1.04852L18.8095 5.92352C18.9272 5.99004 19 6.1148 19 6.24999V16.375C19 16.5102 18.9272 16.6349 18.8095 16.7015L10.1845 21.5765C10.0691 21.6417 9.92774 21.6411 9.8128 21.5749L1.1878 16.6062C1.07162 16.5392 1 16.4153 1 16.2812V6.24999C1 6.1148 1.07279 5.99004 1.19046 5.92352L9.81546 1.04852ZM1.75 6.89882L5.7511 9.20379C5.458 9.81403 5.29364 10.4972 5.29364 11.2187C5.29364 11.9401 5.45684 12.6242 5.74848 13.2354L1.75 15.6209V6.89882ZM2.11641 16.2756L9.625 20.6012V15.8929C8.17368 15.7839 6.907 15.0139 6.12475 13.8842L2.11641 16.2756ZM10.375 15.8899V20.6073L17.8852 16.3624L13.8353 13.8874C13.0596 15.0055 11.8091 15.7706 10.375 15.8899ZM14.2121 13.2388L18.25 15.7063V6.89882L14.2247 9.2177C14.5096 9.82475 14.6686 10.5032 14.6686 11.2187C14.6686 11.9415 14.5048 12.6268 14.2121 13.2388ZM13.5721 9.59368C13.7948 10.0889 13.9186 10.6391 13.9186 11.2187C13.9186 11.9367 13.7268 12.6087 13.3919 13.1876C12.7726 14.2578 11.6653 15.0087 10.375 15.1368V11.4355L13.5721 9.59368ZM13.8527 8.56648L17.8684 6.2531L10.375 2.0177V6.54601C11.8233 6.66073 13.0796 7.43435 13.8527 8.56648ZM9.625 6.54601V2.0177L2.1316 6.2531L6.12899 8.5559C6.91349 7.4288 8.1805 6.66032 9.625 6.54601ZM6.78183 8.93203C7.50104 7.93307 8.67719 7.28124 10 7.28124C11.3255 7.28124 12.4923 7.93667 13.2006 8.94215L10 10.786L6.78183 8.93203ZM6.40341 9.57958C6.17256 10.0788 6.04364 10.634 6.04364 11.2187C6.04364 11.9367 6.23545 12.6087 6.57036 13.1876C7.19564 14.2682 8.31861 15.0233 9.625 15.1403V11.4355L6.40341 9.57958Z" fill="#4A5C7B" stroke="#4A5C7B" stroke-width="0.2"/>
</svg>
