<svg width="16" height="16" viewBox="0 0 16 16" fill="none" xmlns="http://www.w3.org/2000/svg">
<path d="M14.3467 14.5778C14.3467 14.88 14.1156 15.1111 13.8133 15.1111H11.68C11.3778 15.1111 11.1467 14.88 11.1467 14.5778V12.4622C11.1467 12.16 11.3778 11.9289 11.68 11.9289C11.9822 11.9289 12.2133 12.16 12.2133 12.4622V13.4044C13.8667 12.1067 14.8622 10.0978 14.8622 7.96444C14.8622 4.16 11.7689 1.06667 7.96444 1.06667C7.66222 1.06667 7.43111 0.835556 7.43111 0.533333C7.43111 0.231111 7.66222 0 7.96444 0C12.3556 0 15.9289 3.57333 15.9289 7.96444C15.9289 10.3289 14.8622 12.5511 13.1022 14.0444H13.8133C14.0978 14.0444 14.3467 14.2933 14.3467 14.5778ZM7.96444 14.9333C4.16 14.9333 1.06667 11.84 1.06667 8.03556C1.06667 5.90222 2.06222 3.89333 3.71556 2.59556V3.53778C3.71556 3.84 3.94667 4.07111 4.24889 4.07111C4.55111 4.07111 4.78222 3.84 4.78222 3.53778V1.42222C4.78222 1.12 4.55111 0.888889 4.24889 0.888889H2.11556C1.81333 0.888889 1.58222 1.12 1.58222 1.42222C1.58222 1.72444 1.81333 1.95556 2.11556 1.95556H2.82667C1.04889 3.44889 0 5.67111 0 8.03556C0 12.4267 3.57333 16 7.96444 16C8.26667 16 8.49778 15.7689 8.49778 15.4667C8.49778 15.1644 8.26667 14.9333 7.96444 14.9333Z" fill="#2D2D2D"/>
</svg>
