<svg width="18" height="17" viewBox="0 0 18 17" fill="none" xmlns="http://www.w3.org/2000/svg">
<path fill-rule="evenodd" clip-rule="evenodd" d="M17.4706 16.7947H0.529412C0.237026 16.7947 0 16.5577 0 16.2653C0 15.9729 0.237026 15.7359 0.529412 15.7359H1.05882V12.03C1.05882 11.7376 1.29585 11.5006 1.58824 11.5006H4.76471V9.91235C4.76471 9.61996 5.00173 9.38294 5.29412 9.38294H8.47059V7.7947C8.47059 7.50232 8.70761 7.26529 9 7.26529H12.1765V5.67705C12.1765 5.38467 12.4135 5.14764 12.7059 5.14764H16.4118C16.7042 5.14764 16.9412 5.38467 16.9412 5.67705V15.7359H17.4706C17.763 15.7359 18 15.9729 18 16.2653C18 16.5577 17.763 16.7947 17.4706 16.7947ZM13.2353 15.7359H15.8824V6.20647H13.2353V15.7359ZM9.52941 15.7359H12.1765V8.32411H9.52941V15.7359ZM5.82353 15.7359H8.47059V10.4418H5.82353V15.7359ZM2.11765 12.5594V15.7359H4.76471V12.5594H2.11765ZM10.1228 1.29145L9.18783 1.04092C8.90541 0.965242 8.73781 0.674945 8.81348 0.392522C8.88916 0.110099 9.17946 -0.0575045 9.46188 0.0181707L11.6315 0.599505C11.9139 0.67518 12.0815 0.965477 12.0058 1.2479L11.4245 3.41747C11.3488 3.69989 11.0585 3.8675 10.7761 3.79182C10.4936 3.71615 10.326 3.42585 10.4017 3.14343L10.6523 2.20842L4.65263 5.67231C4.04132 6.02525 3.51191 5.10828 4.12322 4.75533L10.1228 1.29145Z" fill="#4A5C7B"/>
</svg>
