<svg width="20" height="19" viewBox="0 0 20 19" fill="none" xmlns="http://www.w3.org/2000/svg">
<path d="M1.26752 6.18809L9.78267 10.4577C9.85014 10.4915 9.92455 10.5091 10 10.5091C10.0754 10.5091 10.1499 10.4915 10.2173 10.4577L18.7325 6.18809C18.8129 6.14776 18.8805 6.08586 18.9277 6.00931C18.975 5.93276 19 5.84457 19 5.75462C19 5.66466 18.975 5.57648 18.9277 5.49993C18.8805 5.42338 18.8129 5.36147 18.7325 5.32114L10.2173 1.05149C10.1499 1.01763 10.0755 1 10 1C9.92453 1 9.85011 1.01763 9.78267 1.05149L1.26752 5.32114C1.18711 5.36147 1.11951 5.42338 1.07226 5.49993C1.02502 5.57648 1 5.66466 1 5.75462C1 5.84457 1.02502 5.93276 1.07226 6.00931C1.11951 6.08586 1.18711 6.14776 1.26752 6.18809ZM10 2.02735L17.4332 5.75462L10 9.48189L2.56676 5.75462L10 2.02735Z" fill="#4A5C7B" stroke="#4A5C7B" stroke-width="0.3"/>
<path d="M18.2978 9.14148L10 13.3022L1.70217 9.14148C1.58725 9.08416 1.45428 9.07478 1.33244 9.11539C1.2106 9.15599 1.10984 9.24328 1.05228 9.35808C0.994724 9.47289 0.98506 9.60584 1.02541 9.72777C1.06576 9.84969 1.15283 9.95063 1.26752 10.0084L9.78267 14.2781C9.85013 14.3119 9.92454 14.3295 10 14.3295C10.0754 14.3295 10.1499 14.3119 10.2173 14.2781L18.7325 10.0084C18.8472 9.95058 18.9342 9.84965 18.9746 9.72772C19.0149 9.6058 19.0053 9.47285 18.9477 9.35804C18.8901 9.24323 18.7894 9.15595 18.6676 9.11534C18.5457 9.07473 18.4127 9.08412 18.2978 9.14143V9.14148Z" fill="#4A5C7B" stroke="#4A5C7B" stroke-width="0.3"/>
<path d="M18.2978 12.9618L10 17.1225L1.70217 12.9618C1.58725 12.9045 1.45428 12.8951 1.33244 12.9357C1.2106 12.9763 1.10984 13.0636 1.05228 13.1784C0.994724 13.2932 0.98506 13.4261 1.02541 13.5481C1.06576 13.67 1.15283 13.7709 1.26752 13.8287L9.78267 18.0984C9.85013 18.1322 9.92454 18.1497 10 18.1497C10.0754 18.1497 10.1499 18.1322 10.2173 18.0984L18.7325 13.8287C18.8472 13.7709 18.9342 13.67 18.9746 13.5481C19.0149 13.4261 19.0053 13.2932 18.9477 13.1784C18.8901 13.0636 18.7894 12.9763 18.6676 12.9357C18.5457 12.8951 18.4127 12.9045 18.2978 12.9618Z" fill="#4A5C7B" stroke="#4A5C7B" stroke-width="0.3"/>
</svg>
