<svg width="18" height="18" viewBox="0 0 18 18" fill="none" xmlns="http://www.w3.org/2000/svg">
<path d="M8.99914 12.3858C10.8663 12.3858 12.3857 10.8672 12.3857 9.00011C12.3857 7.13322 10.8663 5.61457 8.99914 5.61457C7.1324 5.61457 5.6142 7.13322 5.6142 9.00011C5.6142 10.8672 7.1324 12.3858 8.99914 12.3858ZM8.99914 6.62412C10.3097 6.62412 11.3763 7.68995 11.3763 9.00019C11.3763 10.3104 10.3097 11.3764 8.99914 11.3764C7.68898 11.3764 6.6236 10.3104 6.6236 9.00019C6.6236 7.68995 7.68898 6.62412 8.99914 6.62412Z" fill="#4A5C7B"/>
<path d="M2.11137 10.7662C2.27832 11.4228 2.53527 12.0451 2.87847 12.6239L1.79754 13.7047C1.71114 13.819 1.49822 14.1788 1.84713 14.575L3.42484 16.1531C3.80741 16.4916 4.15663 16.3055 4.2842 16.2139L5.37625 15.1218C5.95485 15.4649 6.57687 15.7218 7.23375 15.8887V17.366C7.23375 17.366 7.24983 17.9998 7.95788 17.9998C7.96043 17.9998 7.96178 18.0001 7.96449 18.0001H10.0482C10.0508 18.0001 10.0522 17.9998 10.0547 17.9998C10.5943 17.9998 10.7312 17.6334 10.7664 17.4583V15.8887C11.4226 15.7218 12.0446 15.4649 12.6238 15.1218L13.6995 16.1974C13.7988 16.2753 14.1447 16.4986 14.534 16.1942L16.1982 14.5297C16.4774 14.1719 16.3112 13.8509 16.2222 13.7244L15.1214 12.6238C15.4651 12.044 15.7221 11.4223 15.8886 10.7663H17.428C17.5699 10.7463 17.9636 10.6393 18 10.1191V7.88094C17.9636 7.35854 17.566 7.25306 17.4257 7.23367H15.8886C15.7217 6.57784 15.465 5.95582 15.1214 5.37648L16.234 4.26369C16.3148 4.15009 16.4646 3.87075 16.2763 3.54843L14.454 1.72632C14.1105 1.52541 13.816 1.70844 13.7191 1.78297L12.6237 2.8781C12.0448 2.53519 11.4228 2.27824 10.7663 2.11122V0.541329C10.7311 0.36612 10.5942 0 10.0545 0H7.95773C7.24968 0 7.2336 0.633816 7.2336 0.633816V2.11122C6.57709 2.27794 5.95507 2.53474 5.3761 2.8781L4.26624 1.76832C4.15099 1.68612 3.86436 1.53368 3.53558 1.73631L1.73856 3.53333C1.52203 3.88555 1.71257 4.18886 1.78717 4.2854L2.87772 5.37633C2.53482 5.95552 2.27786 6.57724 2.11122 7.23367H0.579948C0.435017 7.25336 0.0123968 7.36147 0 7.92895V10.0711C0.0123968 10.6366 0.431035 10.7457 0.577618 10.7664H2.11137V10.7662ZM1.00933 8.24285H2.47479C2.57884 8.23143 2.91867 8.15878 3.04805 7.68109C3.04872 7.67846 3.04947 7.67741 3.05008 7.67508C3.19719 7.00782 3.45196 6.38152 3.80666 5.80496C3.81162 5.78482 3.82439 5.75402 3.85444 5.7021C4.06136 5.34124 3.96045 5.07873 3.8839 4.95461L2.81454 3.88487L3.88502 2.81439L4.88353 3.81282L4.89074 3.80771C4.89074 3.80771 5.21043 4.12935 5.71968 3.83694C5.7873 3.79817 5.82381 3.78412 5.83937 3.7866C6.38107 3.45744 6.96763 3.21755 7.59018 3.07066C7.61039 3.06112 7.63781 3.05068 7.68454 3.0382C8.12865 2.91784 8.22264 2.61618 8.24315 2.49011V1.00933H9.75715V2.43128C9.75715 2.43128 9.75557 2.88471 10.3222 3.0382C10.3741 3.05233 10.4031 3.06345 10.4221 3.07404C11.0415 3.22123 11.6246 3.46067 12.1639 3.78825C12.1766 3.78269 12.2125 3.79516 12.2851 3.83694C12.7943 4.12943 13.1141 3.80771 13.1141 3.80771L13.1186 3.81094L14.1153 2.81439L15.1857 3.88487L14.1273 4.94319C14.0505 5.06235 13.9374 5.33087 14.1504 5.70217C14.1876 5.76641 14.203 5.80398 14.202 5.82073C14.5408 6.37408 14.7862 6.97311 14.934 7.60911C14.941 7.62819 14.9485 7.65036 14.9568 7.68116C15.0862 8.15878 15.4259 8.23143 15.5301 8.24293H16.9909V9.75699H15.5258C15.4171 9.76977 15.0842 9.84663 14.9568 10.3189C14.9486 10.3494 14.941 10.3714 14.934 10.3902C14.7853 11.0312 14.5376 11.6345 14.1951 12.1909C14.1882 12.212 14.1758 12.2399 14.1504 12.2839C13.9 12.7204 14.0994 13.0154 14.1619 13.0916L15.1857 14.115L14.1153 15.1856L13.0815 14.1518C12.9919 14.0822 12.7043 13.9085 12.2851 14.1493C12.2427 14.1735 12.2154 14.1857 12.1944 14.1929C11.6415 14.5336 11.0418 14.7807 10.4046 14.9302C10.385 14.9381 10.3578 14.947 10.3222 14.9565C9.75549 15.1099 9.75715 15.5633 9.75715 15.5633V16.9907H8.24315V15.5045C8.22272 15.3784 8.12873 15.0767 7.68454 14.9565C7.659 14.9496 7.64187 14.9436 7.62474 14.9375C6.97424 14.7884 6.36334 14.538 5.8015 14.1906C5.78114 14.1825 5.75559 14.1696 5.71968 14.1493C5.26693 13.8893 4.96565 14.1133 4.90382 14.1666L3.88502 15.1856L2.81454 14.115L3.85677 13.0731C3.92935 12.976 4.08901 12.693 3.85452 12.2839C3.83574 12.2515 3.82289 12.2261 3.8144 12.2065C3.45556 11.6274 3.19824 10.9971 3.05015 10.3248C3.04947 10.3224 3.04872 10.3215 3.04812 10.3189C2.9207 9.8467 2.58786 9.76977 2.47915 9.75699H1.0094V8.24285H1.00933Z" fill="#4A5C7B"/>
</svg>
