<svg width="18" height="18" viewBox="0 0 18 18" fill="none" xmlns="http://www.w3.org/2000/svg">
<path d="M2.4 8.508C2.01304 8.36358 1.58696 8.36358 1.2 8.508C0.84987 8.63179 0.546599 8.86084 0.331763 9.16376C0.116927 9.46668 0.00104371 9.82863 0 10.2V12.6C0 13.0774 0.189642 13.5352 0.527208 13.8728C0.864773 14.2104 1.32261 14.4 1.8 14.4C2.27739 14.4 2.73523 14.2104 3.07279 13.8728C3.41036 13.5352 3.6 13.0774 3.6 12.6V10.2C3.59896 9.82863 3.48307 9.46668 3.26824 9.16376C3.0534 8.86084 2.75013 8.63179 2.4 8.508ZM2.4 12.6C2.4 12.7591 2.33679 12.9117 2.22426 13.0243C2.11174 13.1368 1.95913 13.2 1.8 13.2C1.64087 13.2 1.48826 13.1368 1.37574 13.0243C1.26321 12.9117 1.2 12.7591 1.2 12.6V10.2C1.2 10.0409 1.26321 9.88826 1.37574 9.77574C1.48826 9.66321 1.64087 9.6 1.8 9.6C1.95913 9.6 2.11174 9.66321 2.22426 9.77574C2.33679 9.88826 2.4 10.0409 2.4 10.2V12.6Z" fill="#4A5C7B"/>
<path d="M16.8 8.508C16.4131 8.36358 15.987 8.36358 15.6 8.508C15.2499 8.63179 14.9466 8.86084 14.7318 9.16376C14.517 9.46668 14.4011 9.82863 14.4 10.2V12.6C14.4011 12.9714 14.517 13.3333 14.7318 13.6362C14.9466 13.9392 15.2499 14.1682 15.6 14.292C15.987 14.4364 16.4131 14.4364 16.8 14.292C17.1502 14.1682 17.4534 13.9392 17.6683 13.6362C17.8831 13.3333 17.999 12.9714 18 12.6V10.2C17.999 9.82863 17.8831 9.46668 17.6683 9.16376C17.4534 8.86084 17.1502 8.63179 16.8 8.508ZM16.8 12.6C16.8 12.7591 16.7368 12.9117 16.6243 13.0243C16.5118 13.1368 16.3592 13.2 16.2 13.2C16.0409 13.2 15.8883 13.1368 15.7758 13.0243C15.6632 12.9117 15.6 12.7591 15.6 12.6V10.2C15.6 10.0409 15.6632 9.88826 15.7758 9.77574C15.8883 9.66321 16.0409 9.6 16.2 9.6C16.3592 9.6 16.5118 9.66321 16.6243 9.77574C16.7368 9.88826 16.8 10.0409 16.8 10.2V12.6Z" fill="#4A5C7B"/>
<path d="M16.8 9H15.6V7.8C15.6 6.04957 14.9047 4.37084 13.6669 3.1331C12.4292 1.89536 10.7504 1.2 9.00001 1.2C7.24958 1.2 5.57085 1.89536 4.33311 3.1331C3.09537 4.37084 2.40001 6.04957 2.40001 7.8V9H1.20001V7.8C1.20001 5.73131 2.0218 3.74735 3.48458 2.28457C4.94736 0.821783 6.93132 0 9.00001 0C11.0687 0 13.0527 0.821783 14.5154 2.28457C15.9782 3.74735 16.8 5.73131 16.8 7.8V9Z" fill="#4A5C7B"/>
<path d="M15 16.8H9.59998V15.6H15C15.1591 15.6 15.3117 15.5368 15.4242 15.4243C15.5368 15.3117 15.6 15.1591 15.6 15V13.8H16.8V15C16.8 15.4774 16.6103 15.9352 16.2728 16.2728C15.9352 16.6104 15.4774 16.8 15 16.8Z" fill="#4A5C7B"/>
<path d="M10.56 15H8.64002C8.50748 15 8.40002 15.1075 8.40002 15.24V17.16C8.40002 17.2925 8.50748 17.4 8.64002 17.4H10.56C10.6926 17.4 10.8 17.2925 10.8 17.16V15.24C10.8 15.1075 10.6926 15 10.56 15Z" fill="#4A5C7B"/>
</svg>
