<svg width="18" height="19" viewBox="0 0 18 19" fill="none" xmlns="http://www.w3.org/2000/svg">
<path d="M11.9052 0H6.81077C6.39268 0 6.16589 0.361459 6.18023 0.630791C6.18728 0.942663 6.49185 1.19765 6.81077 1.19765H10.552L0.192498 11.574C-0.0554391 11.7937 -0.0627387 12.2191 0.164054 12.453C0.397895 12.6795 0.823037 12.6657 1.04278 12.4172L11.4023 2.04114V5.79744C11.3952 6.11636 11.6857 6.40684 12.0046 6.40684C12.3162 6.40684 12.607 6.11636 12.5997 5.79744V0.680127C12.5997 0.27638 12.203 0 11.9052 0ZM16.9716 5.5777L6.61242 15.954V12.2048C6.61242 11.8788 6.32195 11.5883 6.00303 11.5883C5.69141 11.5954 5.40068 11.8861 5.40798 12.2048V17.2514C5.40798 17.7334 5.69141 18.0025 6.15204 18.0025H11.2042C11.5231 18.0095 11.8136 17.719 11.8136 17.3999C11.8136 17.0883 11.5231 16.7975 11.2042 16.8046H7.44836L17.8217 6.42144C18.084 6.1521 18.0271 5.76925 17.8431 5.5923C17.5669 5.30862 17.2269 5.32271 16.9716 5.5777Z" fill="#4A5C7B"/>
</svg>
