<svg width="20" height="19" viewBox="0 0 20 19" fill="none" xmlns="http://www.w3.org/2000/svg">
<path d="M13.8358 5.94353C13.8247 7.52102 12.8395 9.00442 11.3395 9.54132C9.79522 10.0948 8.06828 9.62988 7.01662 8.36235C5.99264 7.1225 5.893 5.307 6.72326 3.94538C7.54245 2.60036 9.17529 1.85866 10.7306 2.17416C12.524 2.53394 13.8192 4.11143 13.8358 5.94353C13.8413 6.65755 14.9484 6.65755 14.9428 5.94353C14.9262 3.86235 13.6199 2.00811 11.6661 1.28855C9.7454 0.580063 7.47603 1.21106 6.18636 2.79962C4.88009 4.41032 4.68083 6.71844 5.7657 8.50626C6.84503 10.283 8.94836 11.1852 10.9853 10.7922C13.2768 10.3494 14.9262 8.25165 14.9428 5.94907C14.9484 5.22951 13.8413 5.22951 13.8358 5.94353Z" fill="#4A5C7B"/>
<path d="M13.8358 5.94353C13.8247 7.52102 12.8395 9.00442 11.3395 9.54132C9.79522 10.0948 8.06828 9.62988 7.01662 8.36235C5.99264 7.1225 5.893 5.307 6.72326 3.94538C7.54245 2.60036 9.17529 1.85866 10.7306 2.17416C12.524 2.53394 13.8192 4.11143 13.8358 5.94353ZM13.8358 5.94353C13.8413 6.65755 14.9484 6.65755 14.9428 5.94353C14.9262 3.86235 13.6199 2.00811 11.6661 1.28855C9.7454 0.580063 7.47603 1.21106 6.18636 2.79962C4.88009 4.41032 4.68083 6.71844 5.7657 8.50626C6.84503 10.283 8.94836 11.1852 10.9853 10.7922C13.2768 10.3494 14.9262 8.25165 14.9428 5.94907C14.9484 5.22951 13.8413 5.22951 13.8358 5.94353Z" stroke="#4A5C7B" stroke-width="0.2"/>
<path d="M2.11255 17.8439C2.11255 16.0893 3.05904 14.4398 4.57565 13.5542C5.33948 13.1059 6.20295 12.879 7.08303 12.8734C7.35424 12.8734 7.631 12.8734 7.90221 12.8734C9.16421 12.8734 10.4317 12.8734 11.6937 12.8734C12.7675 12.8734 13.8247 12.8291 14.8432 13.2553C16.6753 14.0192 17.893 15.8679 17.893 17.8439C17.893 18.5579 19 18.5579 19 17.8439C19 15.7738 17.9151 13.8255 16.1771 12.7129C15.3192 12.1649 14.3229 11.855 13.31 11.783C12.9391 11.7553 12.5683 11.7719 12.1974 11.7719C10.869 11.7719 9.54613 11.7719 8.21771 11.7719C7.84133 11.7719 7.47048 11.7719 7.0941 11.7719C6.15314 11.7775 5.23985 11.9878 4.39852 12.3974C2.33948 13.3937 1 15.569 1 17.8494C1.00554 18.5579 2.11255 18.5579 2.11255 17.8439Z" fill="#4A5C7B" stroke="#4A5C7B" stroke-width="0.2"/>
</svg>
